<?xml version="1.0" encoding="UTF-8" standalone="no"?>
<!-- Created with Inkscape (http://www.inkscape.org/) -->

<svg
   xmlns:dc="http://purl.org/dc/elements/1.1/"
   xmlns:cc="http://creativecommons.org/ns#"
   xmlns:rdf="http://www.w3.org/1999/02/22-rdf-syntax-ns#"
   xmlns:svg="http://www.w3.org/2000/svg"
   xmlns="http://www.w3.org/2000/svg"
   xmlns:xlink="http://www.w3.org/1999/xlink"
   xmlns:sodipodi="http://sodipodi.sourceforge.net/DTD/sodipodi-0.dtd"
   xmlns:inkscape="http://www.inkscape.org/namespaces/inkscape"
   width="160mm"
   height="85.01152mm"
   viewBox="0 0 566.92929 301.22192"
   id="svg4136"
   version="1.1"
   inkscape:version="0.91 r13725"
   sodipodi:docname="attention_cartoon.svg">
  <defs
     id="defs4138">
    <linearGradient
       inkscape:collect="always"
       id="linearGradient7576">
      <stop
         style="stop-color:#ffffff;stop-opacity:1"
         offset="0"
         id="stop7578" />
      <stop
         style="stop-color:#ffffff;stop-opacity:0"
         offset="1"
         id="stop7580" />
    </linearGradient>
    <marker
       inkscape:stockid="Arrow2Lend"
       orient="auto"
       refY="0"
       refX="0"
       id="marker5419"
       style="overflow:visible"
       inkscape:isstock="true">
      <path
         id="path5421"
         style="fill:#000000;fill-opacity:1;fill-rule:evenodd;stroke:#000000;stroke-width:0.625;stroke-linejoin:round;stroke-opacity:1"
         d="M 8.7185878,4.0337352 -2.2072895,0.01601326 8.7185884,-4.0017078 c -1.7454984,2.3720609 -1.7354408,5.6174519 -6e-7,8.035443 z"
         transform="matrix(-1.1,0,0,-1.1,-1.1,0)"
         inkscape:connector-curvature="0" />
    </marker>
    <marker
       inkscape:stockid="CurveOut"
       orient="auto"
       refY="0"
       refX="0"
       id="CurveOut"
       style="overflow:visible"
       inkscape:isstock="true">
      <path
         id="path5232"
         d="m -5.4129913,-5.0456926 c 2.76,0 4.99999999,2.24 4.99999999,5.00000002 0,2.75999998 -2.23999999,4.99999998 -4.99999999,4.99999998"
         style="fill:none;fill-rule:evenodd;stroke:#000000;stroke-width:1pt;stroke-opacity:1"
         transform="scale(0.6,0.6)"
         inkscape:connector-curvature="0" />
    </marker>
    <marker
       inkscape:stockid="Arrow2Lend"
       orient="auto"
       refY="0"
       refX="0"
       id="Arrow2Lend"
       style="overflow:visible"
       inkscape:isstock="true">
      <path
         id="path5066"
         style="fill:#000000;fill-opacity:1;fill-rule:evenodd;stroke:#000000;stroke-width:0.625;stroke-linejoin:round;stroke-opacity:1"
         d="M 8.7185878,4.0337352 -2.2072895,0.01601326 8.7185884,-4.0017078 c -1.7454984,2.3720609 -1.7354408,5.6174519 -6e-7,8.035443 z"
         transform="matrix(-1.1,0,0,-1.1,-1.1,0)"
         inkscape:connector-curvature="0" />
    </marker>
    <marker
       inkscape:stockid="Arrow1Lend"
       orient="auto"
       refY="0"
       refX="0"
       id="marker5321"
       style="overflow:visible"
       inkscape:isstock="true">
      <path
         id="path5323"
         d="M 0,0 5,-5 -12.5,0 5,5 0,0 Z"
         style="fill:#000000;fill-opacity:1;fill-rule:evenodd;stroke:#000000;stroke-width:1pt;stroke-opacity:1"
         transform="matrix(-0.8,0,0,-0.8,-10,0)"
         inkscape:connector-curvature="0" />
    </marker>
    <marker
       inkscape:stockid="Arrow1Lend"
       orient="auto"
       refY="0"
       refX="0"
       id="Arrow1Lend"
       style="overflow:visible"
       inkscape:isstock="true">
      <path
         id="path5048"
         d="M 0,0 5,-5 -12.5,0 5,5 0,0 Z"
         style="fill:#000000;fill-opacity:1;fill-rule:evenodd;stroke:#000000;stroke-width:1pt;stroke-opacity:1"
         transform="matrix(-0.8,0,0,-0.8,-10,0)"
         inkscape:connector-curvature="0" />
    </marker>
    <linearGradient
       inkscape:collect="always"
       xlink:href="#linearGradient7576"
       id="linearGradient7582"
       x1="133.88135"
       y1="410.11218"
       x2="111.02419"
       y2="417.96933"
       gradientUnits="userSpaceOnUse"
       gradientTransform="matrix(0.97469622,0,0,0.93796193,2.5525255,25.731572)" />
  </defs>
  <sodipodi:namedview
     id="base"
     pagecolor="#ffffff"
     bordercolor="#666666"
     borderopacity="1.0"
     inkscape:pageopacity="0.0"
     inkscape:pageshadow="2"
     inkscape:zoom="1.979899"
     inkscape:cx="184.72218"
     inkscape:cy="269.93911"
     inkscape:document-units="px"
     inkscape:current-layer="layer1"
     showgrid="false"
     inkscape:window-width="3840"
     inkscape:window-height="2118"
     inkscape:window-x="2560"
     inkscape:window-y="42"
     inkscape:window-maximized="0"
     fit-margin-top="0"
     fit-margin-left="0"
     fit-margin-right="0"
     fit-margin-bottom="0" />
  <metadata
     id="metadata4141">
    <rdf:RDF>
      <cc:Work
         rdf:about="">
        <dc:format>image/svg+xml</dc:format>
        <dc:type
           rdf:resource="http://purl.org/dc/dcmitype/StillImage" />
        <dc:title></dc:title>
      </cc:Work>
    </rdf:RDF>
  </metadata>
  <g
     inkscape:label="Layer 1"
     inkscape:groupmode="layer"
     id="layer1"
     transform="translate(-35.48846,-384.78315)"
     style="display:inline">
    <path
       style="fill:#ffffff;fill-opacity:1;stroke:#000000;stroke-width:0.83251524;stroke-linecap:butt;stroke-miterlimit:0;stroke-dasharray:none;stroke-opacity:1"
       d="m 201.44683,547.35629 39.49303,9.16437 -38.1529,58.14649 -35.04359,-14.83546 z"
       id="rect4711"
       inkscape:connector-curvature="0"
       sodipodi:nodetypes="ccccc" />
    <ellipse
       style="fill:#ffffff;fill-opacity:1;stroke:#000000;stroke-width:2.75000048;stroke-linecap:butt;stroke-miterlimit:3;stroke-dasharray:none;stroke-opacity:1"
       id="path4684"
       cx="251.88869"
       cy="488.43262"
       rx="24.496199"
       ry="36.112953"
       transform="matrix(0.9890449,0.14761502,-0.14761502,0.9890449,0,0)" />
    <path
       style="fill:none;fill-rule:evenodd;stroke:#000000;stroke-width:1px;stroke-linecap:butt;stroke-linejoin:miter;stroke-opacity:1"
       d="m 201.39916,554.357 c 0.60122,0.16434 1.16674,0.18493 1.76777,0 0.34371,-0.10576 0.66366,-0.28256 1.01015,-0.37881 0.41358,-0.11488 0.8418,-0.16836 1.26269,-0.25254 0.63135,-0.12627 1.26269,-0.25254 1.89404,-0.37881 0.4209,-0.0842 0.83582,-0.2076 1.26269,-0.25253 0.37673,-0.0397 0.75845,0.0252 1.13642,0 0.25546,-0.017 0.50924,-0.0642 0.75762,-0.12627 0.12912,-0.0323 0.28469,-0.22039 0.3788,-0.12627 0.0401,0.0401 -0.0266,0.41211 0,0.50507 0.23815,0.8335 0.36358,0.52474 0.50508,1.51523 0.0417,0.29167 -0.0389,0.59184 0,0.88389 0.0459,0.34403 0.17725,0.67133 0.25254,1.01015 0.28256,0.7316 0.22818,1.51969 0.37881,2.27284 0.0601,0.30047 0.18606,0.58476 0.25253,0.88389 0.19707,0.88678 0.16205,1.37475 0.50508,2.14657 0.0616,0.13868 0.17446,0.24868 0.25254,0.37881 0.0659,0.10985 0.11473,0.3099 0.25254,0.3788 0.0376,0.0188 0.0842,0 0.12627,0 0.0842,0 0.16835,0 0.25253,0 0.0421,0 0.0886,0.0188 0.12627,0 0.0532,-0.0266 0.0842,-0.0842 0.12627,-0.12626 0.12627,-0.0421 0.25083,-0.0897 0.37881,-0.12627 0.37023,-0.10578 1.10119,-0.246 1.38896,-0.37881 0.27558,-0.12719 0.48204,-0.37789 0.75761,-0.50508 3.12693,-1.44319 -1.89138,1.32862 2.02031,-0.75761 0.2678,-0.14283 0.48614,-0.36934 0.75761,-0.50508 0.2381,-0.11905 0.50508,-0.16836 0.75762,-0.25254 0.48316,-0.16105 0.78561,-0.28339 1.26269,-0.3788 0.0413,-0.008 0.0842,0 0.12627,0 0.25391,0 0.3268,-0.0446 0.50507,0.25253 0.0685,0.11414 0.0322,0.2847 0.12627,0.37881 0.0595,0.0595 0.19302,-0.0595 0.25254,0 0.0595,0.0595 -0.0377,0.17725 0,0.25254 0.32539,0.65077 0.11826,0.12226 0.37881,0.25254 0.0532,0.0266 0.073,0.0996 0.12627,0.12627 0.0376,0.0188 0.0863,-0.0133 0.12627,0 0.0893,0.0298 0.16325,0.0965 0.25253,0.12627 0.0399,0.0133 0.0842,0 0.12627,0 0.12627,0 0.25381,-0.0179 0.37881,0 0.32114,-0.0211 0.58055,0.2092 0.88388,0.25253 0.16667,0.0238 0.33672,0 0.50508,0 0.4209,0 0.84179,0 1.26269,0 1.47314,0 2.94628,0 4.41942,0"
       id="path4735"
       inkscape:connector-curvature="0" />
    <path
       style="fill:none;fill-rule:evenodd;stroke:#000000;stroke-width:1px;stroke-linecap:butt;stroke-linejoin:miter;stroke-opacity:1"
       d="m 197.23228,561.93314 c 0.12627,-0.16836 0.23,-0.35627 0.37881,-0.50508 0.0298,-0.0298 0.0842,0 0.12627,0 0.0842,0 0.16836,0 0.25254,0 0.0842,0 0.17087,-0.0204 0.25254,0 0.0913,0.0228 0.16836,0.0842 0.25254,0.12627 0.16835,0.0842 0.3303,0.18263 0.50507,0.25254 0.12358,0.0494 0.27488,0.0431 0.37881,0.12627 0.1185,0.0948 0.14523,0.2715 0.25254,0.37881 0.10731,0.10731 0.26135,0.15644 0.3788,0.25254 0.34629,0.28332 0.68229,0.57943 1.01016,0.88388 0.007,0.006 1.51231,1.5128 1.51523,1.51523 0.23316,0.1943 0.5148,0.32297 0.75761,0.50507 0.26298,0.19724 0.51437,0.41022 0.75761,0.63135 0.22022,0.2002 0.37614,0.47822 0.63135,0.63135 0.18403,0.11041 0.43523,0.0391 0.63135,0.12626 2.17125,0.96501 -0.93057,-0.009 1.01015,0.37881 0.0191,0.004 0.21118,0.22497 0.25254,0.25254 0.0783,0.0522 0.16835,0.0842 0.25253,0.12627 0.0842,0.0421 0.16516,0.0913 0.25254,0.12627 0.12358,0.0494 0.24752,0.10439 0.37881,0.12627 0.12455,0.0208 0.25254,0 0.37881,0 0.25253,0 0.50507,0 0.75761,0 0.46299,0 0.92597,0 1.38896,0 0.21045,0 0.4209,0 0.63135,0 0.0421,0 0.0965,-0.0298 0.12627,0 0.0298,0.0298 -0.0298,0.0965 0,0.12627 0.0298,0.0298 0.0912,-0.0233 0.12626,0 0.0991,0.066 0.1573,0.18111 0.25254,0.25253 0.15059,0.11294 0.35449,0.1396 0.50508,0.25254 0.0952,0.0714 0.14606,0.1993 0.25254,0.25254 0.15522,0.0776 0.33821,0.0786 0.50507,0.12627 0.12798,0.0366 0.2483,0.10017 0.37881,0.12627 0.14241,0.0285 0.4661,0 0.63135,0 0.0421,0 0.0965,-0.0298 0.12626,0 0.0298,0.0298 -0.0298,0.0965 0,0.12627 0.0298,0.0298 0.0886,-0.0188 0.12627,0 0.0532,0.0266 0.073,0.0996 0.12627,0.12627 0.0377,0.0188 0.0886,-0.0188 0.12627,0 0.0532,0.0266 0.073,0.0996 0.12627,0.12627 0.0794,0.0397 0.42571,-0.0397 0.50508,0 0.0532,0.0266 0.073,0.0996 0.12627,0.12626 0.0376,0.0188 0.0863,-0.0133 0.12627,0 0.17857,0.0595 0.32246,0.20689 0.50507,0.25254 0.0817,0.0204 0.17,-0.0165 0.25254,0 0.13051,0.0261 0.25523,0.0768 0.37881,0.12627 0.0874,0.035 0.16025,0.10781 0.25254,0.12627 0.13333,0.0267 0.70127,0 0.88388,0 0.0421,0 0.0842,0 0.12627,0 0.0421,0 0.0886,-0.0188 0.12627,0 0.0532,0.0266 0.073,0.0996 0.12627,0.12627 0.0376,0.0188 0.0886,-0.0188 0.12626,0 0.0532,0.0266 0.0842,0.0842 0.12627,0.12627 0.0421,0.0421 0.0933,0.0767 0.12627,0.12627 0.0522,0.0783 0.051,0.19607 0.12627,0.25254 0.10648,0.0799 0.27233,0.0464 0.37881,0.12627 0.0753,0.0565 0.0456,0.20411 0.12627,0.25253 0.14881,0.0893 0.33821,0.0786 0.50507,0.12627 0.12798,0.0366 0.24969,0.094 0.37881,0.12627 0.0841,0.021 0.73785,0 0.75762,0 0.13787,0 0.54968,0.0272 0.63134,0 0.0893,-0.0298 0.16836,-0.0842 0.25254,-0.12627"
       id="path4737"
       inkscape:connector-curvature="0" />
    <path
       style="fill:none;fill-rule:evenodd;stroke:#000000;stroke-width:1px;stroke-linecap:butt;stroke-linejoin:miter;stroke-opacity:1"
       d="m 197.61109,567.99406 c 0,0.21044 0.0298,0.42301 0,0.63134 -0.0133,0.0932 -0.10344,0.16123 -0.12627,0.25254 -0.0248,0.0993 0,0.6263 0,0.75761 0,0.50508 0,1.01016 0,1.51523 0,0.0213 -0.0126,0.85873 0,0.88389 0.0188,0.0376 0.10745,-0.0376 0.12627,0 0.12046,0.24091 -0.1447,0.24332 0.12627,0.3788 0.15613,0.0781 0.13846,-0.0806 0.25254,-0.12627 0.16113,-0.0644 0.34557,-0.0579 0.50508,-0.12626 0.13948,-0.0598 0.24558,-0.17987 0.3788,-0.25254 0.3305,-0.18027 0.66413,-0.35678 1.01016,-0.50508 2.86811,-1.22919 -1.04081,0.53235 1.38895,-0.37881 0.31753,-0.11907 0.40129,-0.3788 0.75762,-0.3788 0.0421,0 0.11296,-0.0399 0.12627,0 0.0399,0.11979 -0.0248,0.25499 0,0.3788 0.0185,0.0923 0.0913,0.16516 0.12627,0.25254 0.0494,0.12358 0.0897,0.25083 0.12627,0.37881 0.0477,0.16686 0.0714,0.34044 0.12627,0.50508 0.0298,0.0893 0.0913,0.16515 0.12626,0.25253 0.0494,0.12358 0.0768,0.25523 0.12627,0.37881 0.189,0.47249 0.0824,0.0384 0.37881,0.63135 0.0871,0.17417 -0.15292,0.11294 0.12627,0.25253 0.0376,0.0188 0.0842,0 0.12627,0 0.0421,0 0.0842,0 0.12627,0 0.16836,0 0.33672,0 0.50507,0 0.16836,0 0.33672,0 0.50508,0 0.0842,0 0.16999,0.0165 0.25254,0 0.13051,-0.0261 0.24968,-0.094 0.37881,-0.12626 0.0691,-0.0173 0.36642,-0.0124 0.3788,0 0.0298,0.0298 -0.0233,0.0912 0,0.12626 0.0991,0.14858 0.25254,0.25254 0.37881,0.37881 0.0421,0.0421 0.0698,0.10745 0.12627,0.12627 0.0799,0.0266 0.16999,-0.0165 0.25254,0 0.13051,0.0261 0.24625,0.11422 0.3788,0.12627 0.33534,0.0305 0.67344,0 1.01016,0 0.50507,0 1.01015,0 1.51523,0 0.33671,0 0.67343,0 1.01015,0 0.25254,0 0.50633,0.0251 0.75761,0 0.17268,-0.0173 0.3339,-0.0977 0.50508,-0.12627 0.12455,-0.0208 0.25254,0 0.37881,0 0.0421,0 0.0965,-0.0298 0.12627,0 0.0595,0.0595 -0.0266,0.17268 0,0.25254 0.0298,0.0893 0.0965,0.16325 0.12626,0.25254 0.0266,0.0799 -0.0595,0.19301 0,0.25253 0.0298,0.0298 0.0886,-0.0188 0.12627,0 0.0532,0.0266 0.0842,0.0842 0.12627,0.12627 0.0842,0.0842 0.15046,0.19129 0.25254,0.25254 0.11413,0.0685 0.25976,0.0668 0.37881,0.12627 0.0532,0.0266 0.073,0.0996 0.12627,0.12627 0.0376,0.0188 0.0886,-0.0188 0.12627,0 0.0532,0.0266 0.073,0.0996 0.12627,0.12627 0.0753,0.0377 0.17724,-0.0376 0.25253,0 0.26924,0.13462 -0.0167,0.11792 0.25254,0.25254 0.17417,0.0871 0.11295,-0.15292 0.25254,0.12627 0.0188,0.0376 -0.0298,0.0965 0,0.12627 0.0298,0.0298 0.0965,-0.0298 0.12627,0 0.0298,0.0298 -0.0298,0.0965 0,0.12626 0.0298,0.0298 0.0842,0 0.12627,0 0.0842,0 0.16836,0 0.25254,0 0.21044,0 0.42089,0 0.63134,0 0.37881,0 0.75762,0 1.13642,0 0.29463,0 0.5968,0.0663 0.88389,0 0.27511,-0.0635 0.49546,-0.27394 0.75761,-0.3788 0.16113,-0.0644 0.3339,-0.0977 0.50508,-0.12627 0.005,-7.9e-4 0.37831,5e-4 0.3788,0 0.0298,-0.0298 -0.0188,-0.0886 0,-0.12627 0.0266,-0.0532 0.073,-0.0996 0.12627,-0.12627 0.0376,-0.0188 0.0842,0 0.12627,0 0.0842,0 0.1825,-0.0467 0.25254,0 0.23888,0.15925 0.0613,0.37507 0.12627,0.50508 0.0679,0.13573 0.20455,0.23483 0.25254,0.3788 0.0399,0.11979 0,0.25254 0,0.37881 0,0.0421 -0.0133,0.0863 0,0.12627 0.30487,0.91462 -0.0364,-0.19908 0.25254,0.37881 0.1004,0.2008 -0.24333,0.13241 0.12627,0.3788 0.07,0.0467 0.16835,0 0.25253,0 0.12627,0 0.25499,0.0248 0.37881,0 0.13052,-0.0261 0.24968,-0.094 0.37881,-0.12626 0.10975,-0.0274 0.38022,0 0.50507,0 0.33672,0 0.67344,0 1.01016,0"
       id="path4739"
       inkscape:connector-curvature="0" />
    <path
       style="fill:none;fill-rule:evenodd;stroke:#000000;stroke-width:1px;stroke-linecap:butt;stroke-linejoin:miter;stroke-opacity:1"
       d="m 201.77797,578.97947 c 0.19293,0.38585 0.35858,0.79545 0.63135,1.13642 0.11155,0.13944 0.27975,0.23022 0.3788,0.3788 0.0769,0.11535 0.10778,0.30643 0.25254,0.37881 0.0376,0.0188 0.0965,-0.0298 0.12627,0 0.0298,0.0298 -0.0298,0.0965 0,0.12627 0.0298,0.0298 0.0886,-0.0188 0.12627,0 0.0532,0.0266 0.0842,0.0842 0.12627,0.12627 0.0428,0.0428 0.56612,0.59873 0.63134,0.63134 0.0376,0.0188 0.0842,0 0.12627,0 0.12627,0 0.25631,0.0306 0.37881,0 0.0913,-0.0228 0.16603,-0.0892 0.25254,-0.12626 0.009,-0.004 1.26105,-0.50417 1.26269,-0.50508 0.18396,-0.1022 0.31685,-0.28469 0.50508,-0.37881 0.23809,-0.11905 0.52392,-0.12507 0.75761,-0.25254 0.2366,-0.12905 0.39576,-0.37419 0.63135,-0.50507 0.65218,-0.36233 0.34727,0.0631 1.01015,-0.12627 0.9656,-0.27589 0.074,-0.25254 0.50507,-0.25254 0.0421,0 0.0886,-0.0188 0.12627,0 0.0532,0.0266 0.10417,0.071 0.12627,0.12627 0.27772,0.30074 0.019,0.68823 0.12627,1.01015 0.0776,0.23283 0.31423,0.39457 0.37881,0.63135 0.0665,0.24364 -0.0415,0.50851 0,0.75761 0.11372,0.68231 0.3329,0.75767 0.50508,1.38896 0.28355,0.43777 0.0254,0.93514 0.12626,1.38896 0.0408,0.18375 0.18264,0.33031 0.25254,0.50508 0.0313,0.0782 -0.0595,0.19301 0,0.25254 0.10126,0.10126 0.73399,-0.36531 0.75762,-0.37881 0.16343,-0.0934 0.33671,-0.16836 0.50507,-0.25254 2.62569,-1.31284 -0.63847,0.35914 2.02031,-1.13642 0.69536,-0.39114 1.24062,-0.55779 1.89403,-1.01015 0.27028,-0.18712 0.46359,-0.48434 0.75762,-0.63135 0.15058,-0.0753 0.33672,0 0.50507,0 0.0421,0 0.10745,-0.0376 0.12627,0 0.0376,0.0753 0,0.16836 0,0.25254 0,0.12627 0,0.25254 0,0.37881 0,0.12627 -0.0207,0.25425 0,0.3788 0.0219,0.13129 0.10439,0.24752 0.12627,0.37881 0.23937,1.43618 -0.23488,-0.4521 0.12627,0.63135 0.0316,0.0947 -0.0631,0.31567 0,0.3788 0.0595,0.0595 0.16836,0 0.25254,0 0.18963,0 0.46403,0.0335 0.63135,0 0.0923,-0.0184 0.16325,-0.0965 0.25253,-0.12627 0.0399,-0.0133 0.0842,0 0.12627,0 0.0421,0 0.0886,-0.0188 0.12627,0 0.0335,0.0168 0.36205,0.34529 0.37881,0.37881 0.0794,0.15884 -0.18135,0.25254 0.12627,0.25254"
       id="path4741"
       inkscape:connector-curvature="0" />
    <path
       style="fill:none;fill-rule:evenodd;stroke:#000000;stroke-width:1px;stroke-linecap:butt;stroke-linejoin:miter;stroke-opacity:1"
       d="m 192.18152,580.49469 c 0.0421,0.21045 0.0742,0.42314 0.12627,0.63135 0.15012,0.60047 0.13445,0.17532 0.25254,0.88388 0.2775,1.66499 -0.0652,0.37039 0.37881,2.14658 0.0743,0.29727 0.17358,0.58781 0.25253,0.88388 0.19158,0.71839 0.23906,1.10272 0.50508,1.76777 0.0699,0.17477 0.16836,0.33671 0.25254,0.50507 0.0842,0.16836 0.16836,0.33672 0.25254,0.50508 0.0842,0.16836 0.1396,0.35449 0.25254,0.50508 0.0252,0.0337 0.0842,0 0.12626,0 0.0421,0 0.0842,0 0.12627,0 0.16836,0 0.33672,0 0.50508,0 0.16836,0 0.33672,0 0.50508,0 0.16835,0 0.34416,0.0495 0.50507,0 0.35857,-0.11033 1.78448,-0.81704 2.14658,-1.01016 0.29941,-0.15968 0.57198,-0.3714 0.88388,-0.50507 0.28164,-0.12071 0.59102,-0.16243 0.88388,-0.25254 0.25443,-0.0783 0.51046,-0.15368 0.75762,-0.25254 0.0148,-0.006 0.48854,-0.32394 0.63134,-0.25254 0.23353,0.11677 0.0881,0.27631 0.12627,0.50508 0.0219,0.13129 0.0913,0.2504 0.12627,0.37881 0.0913,0.33485 0.14901,0.67887 0.25254,1.01015 0.10726,0.34324 0.30346,0.65852 0.37881,1.01015 0.0529,0.24693 -0.0415,0.50851 0,0.75762 0.0438,0.26257 0.20033,0.49658 0.25253,0.75761 0.033,0.16509 -0.0625,0.34876 0,0.50508 0.035,0.0874 0.18599,0.0597 0.25254,0.12627 0.0298,0.0298 -0.0298,0.0965 0,0.12626 0.0298,0.0298 0.0965,-0.0298 0.12627,0 0.0298,0.0298 -0.0376,0.10745 0,0.12627 0.0753,0.0376 0.16836,0 0.25254,0 0.12627,0 0.25254,0 0.37881,0 0.0842,0 0.17724,0.0376 0.25254,0 0.10647,-0.0532 0.1573,-0.18111 0.25253,-0.25253 0.0753,-0.0565 0.17725,-0.0698 0.25254,-0.12627 0.0952,-0.0714 0.14606,-0.1993 0.25254,-0.25254 0.0753,-0.0376 0.17087,0.0204 0.25254,0 0.0913,-0.0228 0.16325,-0.0965 0.25254,-0.12627 0.0399,-0.0133 0.0842,0 0.12627,0 0.0421,0 0.0886,-0.0188 0.12626,0 0.14476,0.0724 0.17565,0.26346 0.25254,0.37881 0.066,0.099 0.1993,0.14606 0.25254,0.25253 0.0188,0.0377 -0.0188,0.0886 0,0.12627 0.0266,0.0532 0.0996,0.073 0.12627,0.12627 0.0376,0.0753 -0.0595,0.19302 0,0.25254 0.0666,0.0666 0.16836,0.0842 0.25254,0.12627 0.0842,0.0421 0.16025,0.10781 0.25254,0.12627 0.12381,0.0248 0.2538,-0.0179 0.3788,0 0.1718,0.0245 0.33198,0.1139 0.50508,0.12627 0.41983,0.03 0.84179,0 1.26269,0 0.37881,0 0.75761,0 1.13642,0 0.33672,0 0.67639,0.0445 1.01015,0 0.30373,-0.0405 0.59102,-0.16243 0.88389,-0.25254 0.25442,-0.0783 0.50166,-0.17941 0.75761,-0.25254 0.0405,-0.0116 0.0842,0 0.12627,0 0.0421,0 0.0886,-0.0188 0.12627,0 0.14476,0.0724 0.17564,0.26346 0.25254,0.37881 0.033,0.0495 0.0933,0.0767 0.12627,0.12627 0.42526,0.63789 9.7e-4,0.003 0.12627,0.37881 0.0298,0.0893 0.0965,0.16325 0.12627,0.25253 0.0232,0.0696 -0.027,0.47808 0,0.50508 0.0665,0.0666 0.18598,0.0597 0.25253,0.12627 0.0298,0.0298 -0.0298,0.0965 0,0.12627 0.0298,0.0298 0.0965,-0.0298 0.12627,0 0.0298,0.0298 -0.0298,0.0965 0,0.12627 0.0858,0.0858 0.25112,-0.12911 0.37881,0.12627 0.0376,0.0753 -0.0595,0.19301 0,0.25253 0.0595,0.0595 0.19301,-0.0595 0.25254,0 0.16836,0.16836 -0.21045,0.12627 0.12627,0.12627"
       id="path4743"
       inkscape:connector-curvature="0" />
    <circle
       style="fill:#ffffff;fill-opacity:1;stroke:#000000;stroke-width:2.79999995;stroke-linecap:butt;stroke-miterlimit:4;stroke-dasharray:none;stroke-opacity:1"
       id="path4705"
       cx="218.19295"
       cy="592.74274"
       r="11.111678" />
    <ellipse
       style="fill:#ffffff;fill-opacity:1;stroke:#000000;stroke-width:2.79999995;stroke-linecap:butt;stroke-miterlimit:4;stroke-dasharray:none;stroke-opacity:1"
       id="path4688"
       cx="172.23102"
       cy="619.25928"
       rx="37.4632"
       ry="61.454323" />
    <ellipse
       style="fill:#ffffff;fill-opacity:1;stroke:#000000;stroke-width:1.87500036;stroke-linecap:butt;stroke-miterlimit:3;stroke-dasharray:none;stroke-opacity:1"
       id="path4745"
       cx="156.32111"
       cy="479.60571"
       rx="5.8083773"
       ry="6.0609155" />
    <ellipse
       style="fill:#ffffff;fill-opacity:1;stroke:#000000;stroke-width:1.87500036;stroke-linecap:butt;stroke-miterlimit:3;stroke-dasharray:none;stroke-opacity:1"
       id="path4745-8"
       cx="139.21402"
       cy="474.10373"
       rx="7.1198258"
       ry="7.4293838" />
    <path
       style="fill:#ffffff;fill-opacity:1;stroke:#000000;stroke-width:0.83251524;stroke-linecap:butt;stroke-miterlimit:0;stroke-dasharray:none;stroke-opacity:1"
       d="m 479.54677,551.24776 39.49303,9.16437 -38.1529,58.14649 -35.04359,-14.83546 z"
       id="rect4711-1"
       inkscape:connector-curvature="0"
       sodipodi:nodetypes="ccccc" />
    <ellipse
       style="fill:#ffffff;fill-opacity:1;stroke:#000000;stroke-width:2.79999995;stroke-linecap:butt;stroke-miterlimit:4;stroke-dasharray:none;stroke-opacity:1"
       id="path4684-0"
       cx="527.51642"
       cy="451.22971"
       rx="24.496199"
       ry="36.112953"
       transform="matrix(0.9890449,0.14761502,-0.14761502,0.9890449,0,0)" />
    <path
       style="fill:none;fill-rule:evenodd;stroke:#000000;stroke-width:1px;stroke-linecap:butt;stroke-linejoin:miter;stroke-opacity:1"
       d="m 479.4991,558.24847 c 0.60122,0.16434 1.16674,0.18493 1.76777,0 0.34371,-0.10576 0.66366,-0.28256 1.01015,-0.37881 0.41358,-0.11488 0.8418,-0.16836 1.26269,-0.25254 0.63135,-0.12627 1.26269,-0.25254 1.89404,-0.37881 0.4209,-0.0842 0.83582,-0.2076 1.26269,-0.25253 0.37673,-0.0397 0.75845,0.0252 1.13642,0 0.25546,-0.017 0.50924,-0.0642 0.75762,-0.12627 0.12912,-0.0323 0.28469,-0.22039 0.3788,-0.12627 0.0401,0.0401 -0.0266,0.41211 0,0.50507 0.23815,0.8335 0.36358,0.52474 0.50508,1.51523 0.0417,0.29167 -0.0389,0.59184 0,0.88389 0.0459,0.34403 0.17725,0.67133 0.25254,1.01015 0.28256,0.7316 0.22818,1.51969 0.37881,2.27284 0.0601,0.30047 0.18606,0.58476 0.25253,0.88389 0.19707,0.88678 0.16205,1.37475 0.50508,2.14657 0.0616,0.13867 0.17446,0.24868 0.25254,0.37881 0.0659,0.10985 0.11473,0.3099 0.25254,0.3788 0.0376,0.0188 0.0842,0 0.12627,0 0.0842,0 0.16835,0 0.25253,0 0.0421,0 0.0886,0.0188 0.12627,0 0.0532,-0.0266 0.0842,-0.0842 0.12627,-0.12626 0.12627,-0.0421 0.25083,-0.0897 0.37881,-0.12628 0.37023,-0.10577 1.10119,-0.24599 1.38896,-0.3788 0.27558,-0.12719 0.48204,-0.37789 0.75761,-0.50508 3.12693,-1.44319 -1.89138,1.32862 2.02031,-0.75761 0.2678,-0.14283 0.48614,-0.36934 0.75761,-0.50508 0.2381,-0.11905 0.50508,-0.16836 0.75762,-0.25254 0.48316,-0.16105 0.78561,-0.28339 1.26269,-0.37881 0.0413,-0.008 0.0842,0 0.12627,0 0.25391,0 0.3268,-0.0446 0.50507,0.25253 0.0685,0.11414 0.0322,0.28471 0.12627,0.37882 0.0595,0.0595 0.19302,-0.0595 0.25254,0 0.0595,0.0595 -0.0377,0.17724 0,0.25253 0.32539,0.65077 0.11826,0.12227 0.37881,0.25254 0.0532,0.0266 0.073,0.0996 0.12627,0.12628 0.0376,0.0188 0.0863,-0.0133 0.12627,0 0.0893,0.0298 0.16325,0.0965 0.25253,0.12626 0.0399,0.0133 0.0842,0 0.12627,0 0.12627,0 0.25381,-0.0179 0.37881,0 0.32114,-0.0211 0.58055,0.20921 0.88388,0.25253 0.16667,0.0238 0.33672,0 0.50508,0 0.4209,0 0.84179,0 1.26269,0 1.47314,0 2.94628,0 4.41942,0"
       id="path4735-8"
       inkscape:connector-curvature="0" />
    <path
       style="fill:none;fill-rule:evenodd;stroke:#000000;stroke-width:1px;stroke-linecap:butt;stroke-linejoin:miter;stroke-opacity:1"
       d="m 475.33222,565.82461 c 0.12627,-0.16836 0.23,-0.35627 0.37881,-0.50508 0.0298,-0.0298 0.0842,0 0.12627,0 0.0842,0 0.16836,0 0.25254,0 0.0842,0 0.17087,-0.0204 0.25254,0 0.0913,0.0228 0.16836,0.0842 0.25254,0.12627 0.16835,0.0842 0.3303,0.18263 0.50507,0.25254 0.12358,0.0494 0.27488,0.0431 0.37881,0.12627 0.1185,0.0948 0.14523,0.2715 0.25254,0.37881 0.10731,0.10731 0.26135,0.15644 0.3788,0.25254 0.34629,0.28332 0.68229,0.57943 1.01016,0.88388 0.007,0.006 1.51231,1.5128 1.51523,1.51523 0.23316,0.1943 0.5148,0.32297 0.75761,0.50507 0.26298,0.19724 0.51437,0.41022 0.75761,0.63135 0.22022,0.2002 0.37614,0.47822 0.63135,0.63135 0.18403,0.11041 0.43523,0.0391 0.63135,0.12626 2.17125,0.96501 -0.93057,-0.009 1.01015,0.37881 0.0191,0.004 0.21118,0.22497 0.25254,0.25254 0.0783,0.0522 0.16835,0.0842 0.25253,0.12627 0.0842,0.0421 0.16516,0.0913 0.25254,0.12627 0.12358,0.0494 0.24752,0.10439 0.37881,0.12627 0.12455,0.0208 0.25254,0 0.37881,0 0.25253,0 0.50507,0 0.75761,0 0.46299,0 0.92597,0 1.38896,0 0.21045,0 0.4209,0 0.63135,0 0.0421,0 0.0965,-0.0298 0.12627,0 0.0298,0.0298 -0.0298,0.0965 0,0.12627 0.0298,0.0298 0.0912,-0.0233 0.12626,0 0.0991,0.066 0.1573,0.18111 0.25254,0.25253 0.15059,0.11294 0.35449,0.1396 0.50508,0.25254 0.0952,0.0714 0.14606,0.1993 0.25254,0.25254 0.15522,0.0776 0.33821,0.0786 0.50507,0.12627 0.12798,0.0366 0.2483,0.10017 0.37881,0.12627 0.14241,0.0285 0.4661,0 0.63135,0 0.0421,0 0.0965,-0.0298 0.12626,0 0.0298,0.0298 -0.0298,0.0965 0,0.12627 0.0298,0.0298 0.0886,-0.0188 0.12627,0 0.0532,0.0266 0.073,0.0996 0.12627,0.12627 0.0377,0.0188 0.0886,-0.0188 0.12627,0 0.0532,0.0266 0.073,0.0996 0.12627,0.12627 0.0794,0.0397 0.42571,-0.0397 0.50508,0 0.0532,0.0266 0.073,0.0996 0.12627,0.12626 0.0376,0.0188 0.0863,-0.0133 0.12627,0 0.17857,0.0595 0.32246,0.20689 0.50507,0.25254 0.0817,0.0204 0.17,-0.0165 0.25254,0 0.13051,0.0261 0.25523,0.0768 0.37881,0.12627 0.0874,0.035 0.16025,0.10781 0.25254,0.12627 0.13333,0.0267 0.70127,0 0.88388,0 0.0421,0 0.0842,0 0.12627,0 0.0421,0 0.0886,-0.0188 0.12627,0 0.0532,0.0266 0.073,0.0996 0.12627,0.12627 0.0376,0.0188 0.0886,-0.0188 0.12626,0 0.0532,0.0266 0.0842,0.0842 0.12627,0.12627 0.0421,0.0421 0.0933,0.0767 0.12627,0.12627 0.0522,0.0783 0.051,0.19607 0.12627,0.25254 0.10648,0.0799 0.27233,0.0464 0.37881,0.12627 0.0753,0.0565 0.0456,0.20411 0.12627,0.25253 0.14881,0.0893 0.33821,0.0786 0.50507,0.12627 0.12798,0.0366 0.24969,0.094 0.37881,0.12627 0.0841,0.021 0.73785,0 0.75762,0 0.13787,0 0.54968,0.0272 0.63134,0 0.0893,-0.0298 0.16836,-0.0842 0.25254,-0.12627"
       id="path4737-5"
       inkscape:connector-curvature="0" />
    <path
       style="fill:none;fill-rule:evenodd;stroke:#000000;stroke-width:1px;stroke-linecap:butt;stroke-linejoin:miter;stroke-opacity:1"
       d="m 475.71103,571.88553 c 0,0.21044 0.0298,0.42301 0,0.63134 -0.0133,0.0932 -0.10344,0.16123 -0.12627,0.25254 -0.0248,0.0993 0,0.6263 0,0.75761 0,0.50508 0,1.01016 0,1.51523 0,0.0213 -0.0126,0.85873 0,0.88389 0.0188,0.0376 0.10745,-0.0376 0.12627,0 0.12046,0.24091 -0.1447,0.24332 0.12627,0.3788 0.15613,0.0781 0.13846,-0.0806 0.25254,-0.12628 0.16113,-0.0644 0.34557,-0.0579 0.50508,-0.12626 0.13948,-0.0598 0.24558,-0.17986 0.3788,-0.25253 0.3305,-0.18027 0.66413,-0.35678 1.01016,-0.50508 2.86811,-1.22919 -1.04081,0.53235 1.38895,-0.37881 0.31753,-0.11907 0.40129,-0.3788 0.75762,-0.3788 0.0421,0 0.11296,-0.0399 0.12627,0 0.0399,0.11978 -0.0248,0.25499 0,0.3788 0.0185,0.0923 0.0913,0.16515 0.12627,0.25254 0.0494,0.12357 0.0897,0.25082 0.12627,0.37881 0.0477,0.16686 0.0714,0.34044 0.12627,0.50507 0.0298,0.0893 0.0913,0.16516 0.12626,0.25254 0.0494,0.12358 0.0768,0.25523 0.12627,0.37881 0.189,0.47249 0.0824,0.0384 0.37881,0.63135 0.0871,0.17417 -0.15292,0.11293 0.12627,0.25252 0.0376,0.0188 0.0842,0 0.12627,0 0.0421,0 0.0842,0 0.12627,0 0.16836,0 0.33672,0 0.50507,0 0.16836,0 0.33672,0 0.50508,0 0.0842,0 0.16999,0.0165 0.25254,0 0.13051,-0.0261 0.24968,-0.094 0.37881,-0.12626 0.0691,-0.0173 0.36642,-0.0124 0.3788,0 0.0298,0.0298 -0.0233,0.0912 0,0.12626 0.0991,0.14859 0.25254,0.25255 0.37881,0.37882 0.0421,0.0421 0.0698,0.10745 0.12627,0.12627 0.0799,0.0266 0.16999,-0.0165 0.25254,0 0.13051,0.0261 0.24625,0.11422 0.3788,0.12626 0.33534,0.0305 0.67344,0 1.01016,0 0.50507,0 1.01015,0 1.51523,0 0.33671,0 0.67343,0 1.01015,0 0.25254,0 0.50633,0.0251 0.75761,0 0.17268,-0.0173 0.3339,-0.0977 0.50508,-0.12626 0.12455,-0.0208 0.25254,0 0.37881,0 0.0421,0 0.0965,-0.0298 0.12627,0 0.0595,0.0595 -0.0266,0.17268 0,0.25254 0.0298,0.0893 0.0965,0.16325 0.12626,0.25254 0.0266,0.0799 -0.0595,0.193 0,0.25253 0.0298,0.0298 0.0886,-0.0188 0.12627,0 0.0532,0.0266 0.0842,0.0842 0.12627,0.12626 0.0842,0.0842 0.15046,0.19129 0.25254,0.25255 0.11413,0.0685 0.25976,0.0668 0.37881,0.12627 0.0532,0.0266 0.073,0.0996 0.12627,0.12627 0.0376,0.0188 0.0886,-0.0188 0.12627,0 0.0532,0.0266 0.073,0.0996 0.12627,0.12626 0.0753,0.0377 0.17724,-0.0376 0.25253,0 0.26924,0.13463 -0.0167,0.11793 0.25254,0.25255 0.17417,0.0871 0.11295,-0.15292 0.25254,0.12627 0.0188,0.0376 -0.0298,0.0965 0,0.12627 0.0298,0.0298 0.0965,-0.0298 0.12627,0 0.0298,0.0298 -0.0298,0.0965 0,0.12626 0.0298,0.0298 0.0842,0 0.12627,0 0.0842,0 0.16836,0 0.25254,0 0.21044,0 0.42089,0 0.63134,0 0.37881,0 0.75762,0 1.13642,0 0.29463,0 0.5968,0.0663 0.88389,0 0.27511,-0.0635 0.49546,-0.27394 0.75761,-0.3788 0.16113,-0.0644 0.3339,-0.0977 0.50508,-0.12627 0.005,-7.9e-4 0.37831,5e-4 0.3788,0 0.0298,-0.0298 -0.0188,-0.0886 0,-0.12628 0.0266,-0.0532 0.073,-0.0996 0.12627,-0.12626 0.0376,-0.0188 0.0842,0 0.12627,0 0.0842,0 0.1825,-0.0467 0.25254,0 0.23888,0.15924 0.0613,0.37507 0.12627,0.50508 0.0679,0.13573 0.20455,0.23483 0.25254,0.37879 0.0399,0.1198 0,0.25255 0,0.37882 0,0.0421 -0.0133,0.0863 0,0.12627 0.30487,0.91462 -0.0364,-0.19908 0.25254,0.37881 0.1004,0.2008 -0.24333,0.1324 0.12627,0.3788 0.07,0.0467 0.16835,0 0.25253,0 0.12627,0 0.25499,0.0248 0.37881,0 0.13052,-0.0261 0.24968,-0.094 0.37881,-0.12626 0.10975,-0.0274 0.38022,0 0.50507,0 0.33672,0 0.67344,0 1.01016,0"
       id="path4739-0"
       inkscape:connector-curvature="0" />
    <path
       style="fill:none;fill-rule:evenodd;stroke:#000000;stroke-width:1px;stroke-linecap:butt;stroke-linejoin:miter;stroke-opacity:1"
       d="m 479.87791,582.87094 c 0.19293,0.38585 0.35858,0.79545 0.63135,1.13642 0.11155,0.13944 0.27975,0.23022 0.3788,0.3788 0.0769,0.11535 0.10778,0.30643 0.25254,0.37881 0.0376,0.0188 0.0965,-0.0298 0.12627,0 0.0298,0.0298 -0.0298,0.0965 0,0.12627 0.0298,0.0298 0.0886,-0.0188 0.12627,0 0.0532,0.0266 0.0842,0.0842 0.12627,0.12627 0.0428,0.0428 0.56612,0.59873 0.63134,0.63134 0.0376,0.0188 0.0842,0 0.12627,0 0.12627,0 0.25631,0.0306 0.37881,0 0.0913,-0.0228 0.16603,-0.0892 0.25254,-0.12626 0.009,-0.004 1.26105,-0.50417 1.26269,-0.50508 0.18396,-0.1022 0.31685,-0.28469 0.50508,-0.37881 0.23809,-0.11905 0.52392,-0.12507 0.75761,-0.25254 0.2366,-0.12906 0.39576,-0.37419 0.63135,-0.50507 0.65218,-0.36233 0.34727,0.0631 1.01015,-0.12627 0.9656,-0.27589 0.074,-0.25254 0.50507,-0.25254 0.0421,0 0.0886,-0.0188 0.12627,0 0.0532,0.0266 0.10417,0.071 0.12627,0.12627 0.27772,0.30074 0.019,0.68823 0.12627,1.01015 0.0776,0.23283 0.31423,0.39457 0.37881,0.63135 0.0665,0.24364 -0.0415,0.50851 0,0.75761 0.11372,0.68231 0.3329,0.75767 0.50508,1.38896 0.28355,0.43777 0.0254,0.93514 0.12626,1.38896 0.0408,0.18375 0.18264,0.33031 0.25254,0.50508 0.0313,0.0782 -0.0595,0.19301 0,0.25254 0.10126,0.10126 0.73399,-0.36531 0.75762,-0.37881 0.16343,-0.0934 0.33671,-0.16836 0.50507,-0.25254 2.62569,-1.31284 -0.63847,0.35914 2.02031,-1.13642 0.69536,-0.39114 1.24062,-0.55779 1.89403,-1.01015 0.27028,-0.18712 0.46359,-0.48434 0.75762,-0.63135 0.15058,-0.0753 0.33672,0 0.50507,0 0.0421,0 0.10745,-0.0376 0.12627,0 0.0376,0.0753 0,0.16836 0,0.25254 0,0.12627 0,0.25254 0,0.37881 0,0.12627 -0.0207,0.25425 0,0.3788 0.0219,0.13129 0.10439,0.24752 0.12627,0.37881 0.23937,1.43618 -0.23488,-0.4521 0.12627,0.63135 0.0316,0.0947 -0.0631,0.31567 0,0.3788 0.0595,0.0595 0.16836,0 0.25254,0 0.18963,0 0.46403,0.0335 0.63135,0 0.0923,-0.0184 0.16325,-0.0965 0.25253,-0.12627 0.0399,-0.0133 0.0842,0 0.12627,0 0.0421,0 0.0886,-0.0188 0.12627,0 0.0335,0.0168 0.36205,0.34529 0.37881,0.37881 0.0794,0.15884 -0.18135,0.25254 0.12627,0.25254"
       id="path4741-6"
       inkscape:connector-curvature="0" />
    <path
       style="fill:none;fill-rule:evenodd;stroke:#000000;stroke-width:1px;stroke-linecap:butt;stroke-linejoin:miter;stroke-opacity:1"
       d="m 470.28146,584.38616 c 0.0421,0.21045 0.0742,0.42314 0.12627,0.63135 0.15012,0.60047 0.13445,0.17532 0.25254,0.88388 0.2775,1.66499 -0.0652,0.37039 0.37881,2.14658 0.0743,0.29727 0.17358,0.58781 0.25253,0.88388 0.19158,0.71839 0.23906,1.10272 0.50508,1.76777 0.0699,0.17477 0.16836,0.33671 0.25254,0.50507 0.0842,0.16836 0.16836,0.33672 0.25254,0.50508 0.0842,0.16836 0.1396,0.35449 0.25254,0.50508 0.0252,0.0337 0.0842,0 0.12626,0 0.0421,0 0.0842,0 0.12627,0 0.16836,0 0.33672,0 0.50508,0 0.16836,0 0.33672,0 0.50508,0 0.16835,0 0.34416,0.0495 0.50507,0 0.35857,-0.11033 1.78448,-0.81704 2.14658,-1.01016 0.29941,-0.15968 0.57198,-0.3714 0.88388,-0.50507 0.28164,-0.12071 0.59102,-0.16243 0.88388,-0.25254 0.25443,-0.0783 0.51046,-0.15368 0.75762,-0.25254 0.0148,-0.006 0.48854,-0.32394 0.63134,-0.25254 0.23353,0.11677 0.0881,0.27631 0.12627,0.50508 0.0219,0.13129 0.0913,0.2504 0.12627,0.37881 0.0913,0.33485 0.14901,0.67887 0.25254,1.01015 0.10726,0.34324 0.30346,0.65852 0.37881,1.01015 0.0529,0.24693 -0.0415,0.50851 0,0.75762 0.0438,0.26257 0.20033,0.49658 0.25253,0.75761 0.033,0.16509 -0.0625,0.34876 0,0.50508 0.035,0.0874 0.18599,0.0597 0.25254,0.12627 0.0298,0.0298 -0.0298,0.0965 0,0.12626 0.0298,0.0298 0.0965,-0.0298 0.12627,0 0.0298,0.0298 -0.0376,0.10745 0,0.12627 0.0753,0.0376 0.16836,0 0.25254,0 0.12627,0 0.25254,0 0.37881,0 0.0842,0 0.17724,0.0376 0.25254,0 0.10647,-0.0532 0.1573,-0.18111 0.25253,-0.25253 0.0753,-0.0565 0.17725,-0.0698 0.25254,-0.12627 0.0952,-0.0714 0.14606,-0.1993 0.25254,-0.25254 0.0753,-0.0376 0.17087,0.0204 0.25254,0 0.0913,-0.0228 0.16325,-0.0965 0.25254,-0.12627 0.0399,-0.0133 0.0842,0 0.12627,0 0.0421,0 0.0886,-0.0188 0.12626,0 0.14476,0.0724 0.17565,0.26346 0.25254,0.37881 0.066,0.099 0.1993,0.14606 0.25254,0.25253 0.0188,0.0377 -0.0188,0.0886 0,0.12627 0.0266,0.0532 0.0996,0.073 0.12627,0.12627 0.0376,0.0753 -0.0595,0.19302 0,0.25254 0.0666,0.0666 0.16836,0.0842 0.25254,0.12627 0.0842,0.0421 0.16025,0.10781 0.25254,0.12627 0.12381,0.0248 0.2538,-0.0179 0.3788,0 0.1718,0.0245 0.33198,0.1139 0.50508,0.12627 0.41983,0.03 0.84179,0 1.26269,0 0.37881,0 0.75761,0 1.13642,0 0.33672,0 0.67639,0.0445 1.01015,0 0.30373,-0.0405 0.59102,-0.16243 0.88389,-0.25254 0.25442,-0.0783 0.50166,-0.17941 0.75761,-0.25254 0.0405,-0.0116 0.0842,0 0.12627,0 0.0421,0 0.0886,-0.0188 0.12627,0 0.14476,0.0724 0.17564,0.26346 0.25254,0.37881 0.033,0.0495 0.0933,0.0767 0.12627,0.12627 0.42526,0.63789 9.7e-4,0.003 0.12627,0.37881 0.0298,0.0893 0.0965,0.16325 0.12627,0.25253 0.0232,0.0696 -0.027,0.47808 0,0.50508 0.0665,0.0666 0.18598,0.0597 0.25253,0.12627 0.0298,0.0298 -0.0298,0.0965 0,0.12627 0.0298,0.0298 0.0965,-0.0298 0.12627,0 0.0298,0.0298 -0.0298,0.0965 0,0.12627 0.0858,0.0858 0.25112,-0.12911 0.37881,0.12627 0.0376,0.0753 -0.0595,0.19301 0,0.25253 0.0595,0.0595 0.19301,-0.0595 0.25254,0 0.16836,0.16836 -0.21045,0.12627 0.12627,0.12627"
       id="path4743-4"
       inkscape:connector-curvature="0" />
    <circle
       style="fill:#ffffff;fill-opacity:1;stroke:#000000;stroke-width:2.79999995;stroke-linecap:butt;stroke-miterlimit:4;stroke-dasharray:none;stroke-opacity:1"
       id="path4705-6"
       cx="496.29288"
       cy="596.63416"
       r="11.111678" />
    <ellipse
       style="fill:#ffffff;fill-opacity:1;stroke:#000000;stroke-width:2.79999995;stroke-linecap:butt;stroke-miterlimit:4;stroke-dasharray:none;stroke-opacity:1"
       id="path4688-2"
       cx="450.33096"
       cy="623.15076"
       rx="37.4632"
       ry="61.454323" />
    <path
       style="fill:none;fill-opacity:1;fill-rule:evenodd;stroke:#000000;stroke-width:1.70000005;stroke-linecap:butt;stroke-linejoin:miter;stroke-miterlimit:0;stroke-dasharray:none;stroke-opacity:1;marker-end:url(#Arrow2Lend)"
       d="m 271.69328,603.77646 79.19511,-0.0261 9.63518,-0.16331 0,0"
       id="path5039"
       inkscape:connector-curvature="0"
       sodipodi:nodetypes="cccc" />
    <rect
       style="fill:#000000;fill-opacity:1;stroke:#000000;stroke-width:0.93845826;stroke-linecap:butt;stroke-miterlimit:0;stroke-dasharray:none;stroke-opacity:1"
       id="rect7379"
       width="74.120041"
       height="3.8544965"
       x="271.49423"
       y="601.81085" />
    <text
       xml:space="preserve"
       style="font-style:normal;font-variant:normal;font-weight:normal;font-stretch:normal;font-size:22.5px;line-height:124.00000095%;font-family:helvetica;-inkscape-font-specification:'helvetica, Normal';text-align:start;letter-spacing:0px;word-spacing:0px;writing-mode:lr-tb;text-anchor:start;fill:#000000;fill-opacity:1;stroke:none;stroke-width:1px;stroke-linecap:butt;stroke-linejoin:miter;stroke-opacity:1"
       x="146.80029"
       y="624.48029"
       id="text7409"
       sodipodi:linespacing="124%"
       transform="matrix(0.88797933,-0.45988337,0.45988337,0.88797933,0,0)"><tspan
         sodipodi:role="line"
         id="tspan7411"
         x="146.80029"
         y="624.48029"
         style="font-style:normal;font-variant:normal;font-weight:normal;font-stretch:normal;font-size:45px;font-family:'Comic Sans MS';-inkscape-font-specification:'Comic Sans MS'">?</tspan></text>
    <text
       xml:space="preserve"
       style="font-style:normal;font-variant:normal;font-weight:normal;font-stretch:normal;font-size:22.5px;line-height:124.00000095%;font-family:helvetica;-inkscape-font-specification:'helvetica, Normal';text-align:start;letter-spacing:0px;word-spacing:0px;writing-mode:lr-tb;text-anchor:start;fill:#000000;fill-opacity:1;stroke:none;stroke-width:1px;stroke-linecap:butt;stroke-linejoin:miter;stroke-opacity:1"
       x="661.86816"
       y="138.31923"
       id="text7409-0"
       sodipodi:linespacing="124%"
       transform="matrix(0.83394306,0.5518505,-0.5518505,0.83394306,0,0)"
       inkscape:transform-center-x="0.76613336"
       inkscape:transform-center-y="-1.2640238"><tspan
         sodipodi:role="line"
         id="tspan7411-3"
         x="661.86816"
         y="138.31923"
         style="font-style:normal;font-variant:normal;font-weight:normal;font-stretch:normal;font-size:45px;font-family:'Comic Sans MS';-inkscape-font-specification:'Comic Sans MS'">?</tspan></text>
    <text
       xml:space="preserve"
       style="font-style:normal;font-variant:normal;font-weight:normal;font-stretch:normal;font-size:22.5px;line-height:124.00000095%;font-family:helvetica;-inkscape-font-specification:'helvetica, Normal';text-align:start;letter-spacing:0px;word-spacing:0px;writing-mode:lr-tb;text-anchor:start;fill:#000000;fill-opacity:1;stroke:none;stroke-width:1px;stroke-linecap:butt;stroke-linejoin:miter;stroke-opacity:1"
       x="525.05621"
       y="394.80048"
       id="text7409-0-4"
       sodipodi:linespacing="124%"
       transform="matrix(0.98550349,0.16965516,-0.16965516,0.98550349,0,0)"
       inkscape:transform-center-x="1.209972"
       inkscape:transform-center-y="-0.84892875"><tspan
         sodipodi:role="line"
         id="tspan7411-3-0"
         x="525.05621"
         y="394.80048"
         style="font-style:normal;font-variant:normal;font-weight:normal;font-stretch:normal;font-size:45px;font-family:'Comic Sans MS';-inkscape-font-specification:'Comic Sans MS'">?</tspan></text>
    <g
       id="g7619"
       transform="translate(-0.80357162,4.9107152)">
      <path
         sodipodi:nodetypes="ccc"
         inkscape:connector-curvature="0"
         id="path4854"
         d="m 103.75457,420.3906 12.00446,29.61415 11.78581,-29.61415"
         style="fill:none;fill-rule:evenodd;stroke:#000000;stroke-width:1.57658684;stroke-linecap:butt;stroke-linejoin:miter;stroke-miterlimit:4;stroke-dasharray:none;stroke-opacity:1" />
      <path
         sodipodi:nodetypes="sssss"
         inkscape:connector-curvature="0"
         id="path4815"
         d="m 130.79016,416.12775 c 0,7.30039 -5.90617,4.61852 -14.17407,4.61852 -8.26791,0 -15.76668,2.68187 -15.76668,-4.61852 0,-7.30039 6.70246,-13.21852 14.97038,-13.21852 8.26791,0 14.97037,5.91813 14.97037,13.21852 z"
         style="fill:#ff9393;fill-opacity:1;stroke:#000000;stroke-width:1.57658684;stroke-linecap:butt;stroke-miterlimit:4;stroke-dasharray:none;stroke-opacity:1" />
      <path
         inkscape:transform-center-y="-1.1740204"
         inkscape:transform-center-x="1.2183683"
         sodipodi:nodetypes="sssss"
         inkscape:connector-curvature="0"
         id="path4815-9"
         d="m 129.99526,416.25132 c 0,6.8475 -6.8616,4.26888 -14.92029,4.26888 -8.0587,0 -14.19973,2.04198 -14.19973,-4.80552 0,-6.84748 6.75384,-12.0828 14.81254,-12.0828 8.0587,0 14.30748,5.77196 14.30748,12.61944 z"
         style="display:inline;fill:url(#linearGradient7582);fill-opacity:1;stroke:none;stroke-width:1.57658684;stroke-linecap:butt;stroke-miterlimit:4;stroke-dasharray:none;stroke-opacity:1" />
      <path
         sodipodi:nodetypes="sssss"
         inkscape:connector-curvature="0"
         id="path4815-6"
         d="m 130.41874,415.83798 c 0,7.3004 -5.90617,4.61853 -14.17407,4.61853 -8.26791,0 -15.76668,2.68187 -15.76668,-4.61853 0,-7.30039 6.70246,-13.21852 14.97038,-13.21852 8.26791,0 14.97037,5.91813 14.97037,13.21852 z"
         style="display:inline;fill:none;fill-opacity:1;stroke:#000000;stroke-width:1.57658684;stroke-linecap:butt;stroke-miterlimit:4;stroke-dasharray:none;stroke-opacity:1" />
    </g>
  </g>
  <g
     inkscape:groupmode="layer"
     id="layer2"
     inkscape:label="Layer 2"
     style="display:inline;opacity:1">
    <path
       style="fill:none;fill-rule:evenodd;stroke:#000000;stroke-width:2.80000067;stroke-linecap:butt;stroke-linejoin:miter;stroke-miterlimit:4;stroke-dasharray:none;stroke-opacity:1"
       d="m 153.6235,127.50498 6.23314,3.37994"
       id="path7522"
       inkscape:connector-curvature="0"
       sodipodi:nodetypes="cc" />
    <ellipse
       style="fill:#000000;fill-opacity:1;stroke:#000000;stroke-width:1.11062038;stroke-linecap:butt;stroke-miterlimit:4;stroke-dasharray:none;stroke-opacity:1"
       id="path7524"
       cx="435.50198"
       cy="134.23103"
       rx="1.8361875"
       ry="1.899322" />
    <path
       style="fill:none;fill-opacity:0;stroke:#000000;stroke-width:1.8853122;stroke-linecap:butt;stroke-miterlimit:3;stroke-dasharray:none;stroke-opacity:1"
       d="M 81.427734,6.5794911 A 31.785708,19.999996 0 0 0 51.703125,19.563866 17.321422,14.642853 0 0 0 47.015625,19.003319 17.321422,14.642853 0 0 0 29.693359,33.645898 17.321422,14.642853 0 0 0 29.835938,35.370507 23.029618,17.198361 0 0 0 21.945312,48.302148 23.029618,17.198361 0 0 0 36.378906,64.243554 21.249995,20.178568 0 0 0 56.25,77.292382 21.249995,20.178568 0 0 0 60.695312,76.821679 32.628963,32.986109 0 0 0 80.535156,83.673241 32.628963,32.986109 0 0 0 106.5918,70.472069 36.964278,26.428567 0 0 0 135,44.792382 36.964278,26.428567 0 0 0 111.51953,20.212304 31.785708,19.999996 0 0 0 81.427734,6.5794911 Z"
       id="path7599"
       inkscape:connector-curvature="0" />
  </g>
</svg>
